<mxfile host="65bd71144e">
    <diagram id="KBLAycIt5y_LCWX2KAk4" name="Class_Diagram">
        <mxGraphModel dx="1130" dy="784" grid="1" gridSize="10" guides="1" tooltips="1" connect="1" arrows="1" fold="1" page="1" pageScale="1" pageWidth="850" pageHeight="1100" math="0" shadow="0">
            <root>
                <mxCell id="0"/>
                <mxCell id="1" parent="0"/>
                <mxCell id="40" style="edgeStyle=none;html=1;" parent="1" source="5" target="14" edge="1">
                    <mxGeometry relative="1" as="geometry">
                        <mxPoint x="710" y="190" as="targetPoint"/>
                    </mxGeometry>
                </mxCell>
                <mxCell id="5" value="Interview" style="swimlane;fontStyle=0;childLayout=stackLayout;horizontal=1;startSize=26;fillColor=none;horizontalStack=0;resizeParent=1;resizeParentMax=0;resizeLast=0;collapsible=1;marginBottom=0;" parent="1" vertex="1">
                    <mxGeometry x="830" y="400" width="140" height="130" as="geometry">
                        <mxRectangle x="610" y="490" width="90" height="30" as="alternateBounds"/>
                    </mxGeometry>
                </mxCell>
                <mxCell id="6" value="- id: Int" style="text;strokeColor=none;fillColor=none;align=left;verticalAlign=top;spacingLeft=4;spacingRight=4;overflow=hidden;rotatable=0;points=[[0,0.5],[1,0.5]];portConstraint=eastwest;" parent="5" vertex="1">
                    <mxGeometry y="26" width="140" height="26" as="geometry"/>
                </mxCell>
                <mxCell id="7" value="- description: String" style="text;strokeColor=none;fillColor=none;align=left;verticalAlign=top;spacingLeft=4;spacingRight=4;overflow=hidden;rotatable=0;points=[[0,0.5],[1,0.5]];portConstraint=eastwest;" parent="5" vertex="1">
                    <mxGeometry y="52" width="140" height="26" as="geometry"/>
                </mxCell>
                <mxCell id="8" value="- urgence: Boolean" style="text;strokeColor=none;fillColor=none;align=left;verticalAlign=top;spacingLeft=4;spacingRight=4;overflow=hidden;rotatable=0;points=[[0,0.5],[1,0.5]];portConstraint=eastwest;" parent="5" vertex="1">
                    <mxGeometry y="78" width="140" height="26" as="geometry"/>
                </mxCell>
                <mxCell id="9" value="-- iInterviewType:String" style="text;strokeColor=none;fillColor=none;align=left;verticalAlign=top;spacingLeft=4;spacingRight=4;overflow=hidden;rotatable=0;points=[[0,0.5],[1,0.5]];portConstraint=eastwest;" parent="5" vertex="1">
                    <mxGeometry y="104" width="140" height="26" as="geometry"/>
                </mxCell>
                <mxCell id="11" value="Recruiter" style="swimlane;fontStyle=0;childLayout=stackLayout;horizontal=1;startSize=26;fillColor=none;horizontalStack=0;resizeParent=1;resizeParentMax=0;resizeLast=0;collapsible=1;marginBottom=0;" parent="1" vertex="1">
                    <mxGeometry x="830" y="87" width="140" height="104" as="geometry"/>
                </mxCell>
                <mxCell id="12" value="- id: Int" style="text;strokeColor=none;fillColor=none;align=left;verticalAlign=top;spacingLeft=4;spacingRight=4;overflow=hidden;rotatable=0;points=[[0,0.5],[1,0.5]];portConstraint=eastwest;" parent="11" vertex="1">
                    <mxGeometry y="26" width="140" height="26" as="geometry"/>
                </mxCell>
                <mxCell id="13" value="- nom: String" style="text;strokeColor=none;fillColor=none;align=left;verticalAlign=top;spacingLeft=4;spacingRight=4;overflow=hidden;rotatable=0;points=[[0,0.5],[1,0.5]];portConstraint=eastwest;" parent="11" vertex="1">
                    <mxGeometry y="52" width="140" height="26" as="geometry"/>
                </mxCell>
                <mxCell id="14" value="- email : String" style="text;strokeColor=none;fillColor=none;align=left;verticalAlign=top;spacingLeft=4;spacingRight=4;overflow=hidden;rotatable=0;points=[[0,0.5],[1,0.5]];portConstraint=eastwest;" parent="11" vertex="1">
                    <mxGeometry y="78" width="140" height="26" as="geometry"/>
                </mxCell>
                <mxCell id="29" style="edgeStyle=none;html=1;entryX=0.129;entryY=-0.013;entryDx=0;entryDy=0;entryPerimeter=0;exitX=0.107;exitY=1.038;exitDx=0;exitDy=0;exitPerimeter=0;" parent="1" source="18" target="24" edge="1">
                    <mxGeometry relative="1" as="geometry">
                        <Array as="points"/>
                    </mxGeometry>
                </mxCell>
                <mxCell id="15" value="JobPosition" style="swimlane;fontStyle=0;childLayout=stackLayout;horizontal=1;startSize=26;fillColor=none;horizontalStack=0;resizeParent=1;resizeParentMax=0;resizeLast=0;collapsible=1;marginBottom=0;" parent="1" vertex="1">
                    <mxGeometry x="100" y="440" width="140" height="104" as="geometry"/>
                </mxCell>
                <mxCell id="16" value="- id: Int" style="text;strokeColor=none;fillColor=none;align=left;verticalAlign=top;spacingLeft=4;spacingRight=4;overflow=hidden;rotatable=0;points=[[0,0.5],[1,0.5]];portConstraint=eastwest;" parent="15" vertex="1">
                    <mxGeometry y="26" width="140" height="26" as="geometry"/>
                </mxCell>
                <mxCell id="17" value="- nom: String" style="text;strokeColor=none;fillColor=none;align=left;verticalAlign=top;spacingLeft=4;spacingRight=4;overflow=hidden;rotatable=0;points=[[0,0.5],[1,0.5]];portConstraint=eastwest;" parent="15" vertex="1">
                    <mxGeometry y="52" width="140" height="26" as="geometry"/>
                </mxCell>
                <mxCell id="18" value="- id_parent : Int" style="text;strokeColor=none;fillColor=none;align=left;verticalAlign=top;spacingLeft=4;spacingRight=4;overflow=hidden;rotatable=0;points=[[0,0.5],[1,0.5]];portConstraint=eastwest;" parent="15" vertex="1">
                    <mxGeometry y="78" width="140" height="26" as="geometry"/>
                </mxCell>
                <mxCell id="41" style="edgeStyle=none;html=1;entryX=0.579;entryY=1.154;entryDx=0;entryDy=0;entryPerimeter=0;" parent="1" source="19" target="9" edge="1">
                    <mxGeometry relative="1" as="geometry">
                        <Array as="points">
                            <mxPoint x="910" y="720"/>
                        </Array>
                    </mxGeometry>
                </mxCell>
                <mxCell id="19" value="Applicant" style="swimlane;fontStyle=0;childLayout=stackLayout;horizontal=1;startSize=26;fillColor=none;horizontalStack=0;resizeParent=1;resizeParentMax=0;resizeLast=0;collapsible=1;marginBottom=0;" parent="1" vertex="1">
                    <mxGeometry x="650" y="670" width="140" height="104" as="geometry"/>
                </mxCell>
                <mxCell id="20" value="- id: Int" style="text;strokeColor=none;fillColor=none;align=left;verticalAlign=top;spacingLeft=4;spacingRight=4;overflow=hidden;rotatable=0;points=[[0,0.5],[1,0.5]];portConstraint=eastwest;" parent="19" vertex="1">
                    <mxGeometry y="26" width="140" height="26" as="geometry"/>
                </mxCell>
                <mxCell id="21" value="- nom: String" style="text;strokeColor=none;fillColor=none;align=left;verticalAlign=top;spacingLeft=4;spacingRight=4;overflow=hidden;rotatable=0;points=[[0,0.5],[1,0.5]];portConstraint=eastwest;" parent="19" vertex="1">
                    <mxGeometry y="52" width="140" height="26" as="geometry"/>
                </mxCell>
                <mxCell id="22" value="- email : String" style="text;strokeColor=none;fillColor=none;align=left;verticalAlign=top;spacingLeft=4;spacingRight=4;overflow=hidden;rotatable=0;points=[[0,0.5],[1,0.5]];portConstraint=eastwest;" parent="19" vertex="1">
                    <mxGeometry y="78" width="140" height="26" as="geometry"/>
                </mxCell>
                <mxCell id="24" value="LineOfbusiness" style="swimlane;fontStyle=0;childLayout=stackLayout;horizontal=1;startSize=26;fillColor=none;horizontalStack=0;resizeParent=1;resizeParentMax=0;resizeLast=0;collapsible=1;marginBottom=0;" parent="1" vertex="1">
                    <mxGeometry x="100" y="696" width="140" height="78" as="geometry"/>
                </mxCell>
                <mxCell id="25" value="- id: Int" style="text;strokeColor=none;fillColor=none;align=left;verticalAlign=top;spacingLeft=4;spacingRight=4;overflow=hidden;rotatable=0;points=[[0,0.5],[1,0.5]];portConstraint=eastwest;" parent="24" vertex="1">
                    <mxGeometry y="26" width="140" height="26" as="geometry"/>
                </mxCell>
                <mxCell id="26" value="- nom: String" style="text;strokeColor=none;fillColor=none;align=left;verticalAlign=top;spacingLeft=4;spacingRight=4;overflow=hidden;rotatable=0;points=[[0,0.5],[1,0.5]];portConstraint=eastwest;" parent="24" vertex="1">
                    <mxGeometry y="52" width="140" height="26" as="geometry"/>
                </mxCell>
                <mxCell id="39" style="edgeStyle=none;html=1;entryX=0;entryY=0.5;entryDx=0;entryDy=0;" parent="1" source="30" target="20" edge="1">
                    <mxGeometry relative="1" as="geometry"/>
                </mxCell>
                <mxCell id="42" style="edgeStyle=none;html=1;entryX=0.979;entryY=0.038;entryDx=0;entryDy=0;entryPerimeter=0;" parent="1" target="18" edge="1">
                    <mxGeometry relative="1" as="geometry">
                        <mxPoint x="360" y="650" as="sourcePoint"/>
                        <Array as="points">
                            <mxPoint x="360" y="520"/>
                        </Array>
                    </mxGeometry>
                </mxCell>
                <mxCell id="58" style="edgeStyle=none;html=1;entryX=0;entryY=0.5;entryDx=0;entryDy=0;" parent="1" source="30" target="55" edge="1">
                    <mxGeometry relative="1" as="geometry">
                        <Array as="points">
                            <mxPoint x="400" y="550"/>
                            <mxPoint x="400" y="510"/>
                        </Array>
                    </mxGeometry>
                </mxCell>
                <mxCell id="30" value="SkillApplicant" style="swimlane;fontStyle=0;childLayout=stackLayout;horizontal=1;startSize=26;fillColor=none;horizontalStack=0;resizeParent=1;resizeParentMax=0;resizeLast=0;collapsible=1;marginBottom=0;" parent="1" vertex="1">
                    <mxGeometry x="330" y="644" width="140" height="130" as="geometry"/>
                </mxCell>
                <mxCell id="31" value="- id: Int" style="text;strokeColor=none;fillColor=none;align=left;verticalAlign=top;spacingLeft=4;spacingRight=4;overflow=hidden;rotatable=0;points=[[0,0.5],[1,0.5]];portConstraint=eastwest;" parent="30" vertex="1">
                    <mxGeometry y="26" width="140" height="26" as="geometry"/>
                </mxCell>
                <mxCell id="32" value="- idApplicant: Int" style="text;strokeColor=none;fillColor=none;align=left;verticalAlign=top;spacingLeft=4;spacingRight=4;overflow=hidden;rotatable=0;points=[[0,0.5],[1,0.5]];portConstraint=eastwest;" parent="30" vertex="1">
                    <mxGeometry y="52" width="140" height="26" as="geometry"/>
                </mxCell>
                <mxCell id="33" value="- idJobPosition : Int" style="text;strokeColor=none;fillColor=none;align=left;verticalAlign=top;spacingLeft=4;spacingRight=4;overflow=hidden;rotatable=0;points=[[0,0.5],[1,0.5]];portConstraint=eastwest;" parent="30" vertex="1">
                    <mxGeometry y="78" width="140" height="26" as="geometry"/>
                </mxCell>
                <mxCell id="34" value="- idLevelOfExpertise: String" style="text;strokeColor=none;fillColor=none;align=left;verticalAlign=top;spacingLeft=4;spacingRight=4;overflow=hidden;rotatable=0;points=[[0,0.5],[1,0.5]];portConstraint=eastwest;" parent="30" vertex="1">
                    <mxGeometry y="104" width="140" height="26" as="geometry"/>
                </mxCell>
                <mxCell id="60" style="edgeStyle=none;html=1;" parent="1" source="47" target="54" edge="1">
                    <mxGeometry relative="1" as="geometry">
                        <Array as="points">
                            <mxPoint x="520" y="280"/>
                        </Array>
                    </mxGeometry>
                </mxCell>
                <mxCell id="44" value="Skill" style="swimlane;fontStyle=0;childLayout=stackLayout;horizontal=1;startSize=26;fillColor=none;horizontalStack=0;resizeParent=1;resizeParentMax=0;resizeLast=0;collapsible=1;marginBottom=0;" parent="1" vertex="1">
                    <mxGeometry x="310" y="191" width="140" height="130" as="geometry"/>
                </mxCell>
                <mxCell id="45" value="- id: Int" style="text;strokeColor=none;fillColor=none;align=left;verticalAlign=top;spacingLeft=4;spacingRight=4;overflow=hidden;rotatable=0;points=[[0,0.5],[1,0.5]];portConstraint=eastwest;" parent="44" vertex="1">
                    <mxGeometry y="26" width="140" height="26" as="geometry"/>
                </mxCell>
                <mxCell id="46" value="- idTechnicalAdvisor: Int" style="text;strokeColor=none;fillColor=none;align=left;verticalAlign=top;spacingLeft=4;spacingRight=4;overflow=hidden;rotatable=0;points=[[0,0.5],[1,0.5]];portConstraint=eastwest;" parent="44" vertex="1">
                    <mxGeometry y="52" width="140" height="26" as="geometry"/>
                </mxCell>
                <mxCell id="47" value="- idJobPosition : Int" style="text;strokeColor=none;fillColor=none;align=left;verticalAlign=top;spacingLeft=4;spacingRight=4;overflow=hidden;rotatable=0;points=[[0,0.5],[1,0.5]];portConstraint=eastwest;" parent="44" vertex="1">
                    <mxGeometry y="78" width="140" height="26" as="geometry"/>
                </mxCell>
                <mxCell id="48" value="- idLevelOfExpertise: String" style="text;strokeColor=none;fillColor=none;align=left;verticalAlign=top;spacingLeft=4;spacingRight=4;overflow=hidden;rotatable=0;points=[[0,0.5],[1,0.5]];portConstraint=eastwest;" parent="44" vertex="1">
                    <mxGeometry y="104" width="140" height="26" as="geometry"/>
                </mxCell>
                <mxCell id="49" value="TechnicalAdvisor" style="swimlane;fontStyle=0;childLayout=stackLayout;horizontal=1;startSize=26;fillColor=none;horizontalStack=0;resizeParent=1;resizeParentMax=0;resizeLast=0;collapsible=1;marginBottom=0;" parent="1" vertex="1">
                    <mxGeometry x="60" y="61" width="140" height="130" as="geometry"/>
                </mxCell>
                <mxCell id="50" value="- id: Int" style="text;strokeColor=none;fillColor=none;align=left;verticalAlign=top;spacingLeft=4;spacingRight=4;overflow=hidden;rotatable=0;points=[[0,0.5],[1,0.5]];portConstraint=eastwest;" parent="49" vertex="1">
                    <mxGeometry y="26" width="140" height="26" as="geometry"/>
                </mxCell>
                <mxCell id="51" value="- nom: String" style="text;strokeColor=none;fillColor=none;align=left;verticalAlign=top;spacingLeft=4;spacingRight=4;overflow=hidden;rotatable=0;points=[[0,0.5],[1,0.5]];portConstraint=eastwest;" parent="49" vertex="1">
                    <mxGeometry y="52" width="140" height="26" as="geometry"/>
                </mxCell>
                <mxCell id="52" value="- email : String" style="text;strokeColor=none;fillColor=none;align=left;verticalAlign=top;spacingLeft=4;spacingRight=4;overflow=hidden;rotatable=0;points=[[0,0.5],[1,0.5]];portConstraint=eastwest;" parent="49" vertex="1">
                    <mxGeometry y="78" width="140" height="26" as="geometry"/>
                </mxCell>
                <mxCell id="53" value="- actif: Boolean" style="text;strokeColor=none;fillColor=none;align=left;verticalAlign=top;spacingLeft=4;spacingRight=4;overflow=hidden;rotatable=0;points=[[0,0.5],[1,0.5]];portConstraint=eastwest;" parent="49" vertex="1">
                    <mxGeometry y="104" width="140" height="26" as="geometry"/>
                </mxCell>
                <mxCell id="54" value="LevelOfExpertise" style="swimlane;fontStyle=0;childLayout=stackLayout;horizontal=1;startSize=26;fillColor=none;horizontalStack=0;resizeParent=1;resizeParentMax=0;resizeLast=0;collapsible=1;marginBottom=0;" parent="1" vertex="1">
                    <mxGeometry x="450" y="472" width="140" height="78" as="geometry"/>
                </mxCell>
                <mxCell id="55" value="- id: Int" style="text;strokeColor=none;fillColor=none;align=left;verticalAlign=top;spacingLeft=4;spacingRight=4;overflow=hidden;rotatable=0;points=[[0,0.5],[1,0.5]];portConstraint=eastwest;" parent="54" vertex="1">
                    <mxGeometry y="26" width="140" height="26" as="geometry"/>
                </mxCell>
                <mxCell id="56" value="- level: String" style="text;strokeColor=none;fillColor=none;align=left;verticalAlign=top;spacingLeft=4;spacingRight=4;overflow=hidden;rotatable=0;points=[[0,0.5],[1,0.5]];portConstraint=eastwest;" parent="54" vertex="1">
                    <mxGeometry y="52" width="140" height="26" as="geometry"/>
                </mxCell>
                <mxCell id="59" style="edgeStyle=none;html=1;entryX=1;entryY=0.123;entryDx=0;entryDy=0;entryPerimeter=0;" parent="1" target="49" edge="1">
                    <mxGeometry relative="1" as="geometry">
                        <mxPoint x="360" y="190" as="sourcePoint"/>
                        <Array as="points">
                            <mxPoint x="360" y="80"/>
                        </Array>
                    </mxGeometry>
                </mxCell>
                <mxCell id="61" style="edgeStyle=none;html=1;" parent="1" edge="1">
                    <mxGeometry relative="1" as="geometry">
                        <mxPoint x="310" y="240" as="sourcePoint"/>
                        <mxPoint x="160" y="430" as="targetPoint"/>
                        <Array as="points">
                            <mxPoint x="160" y="240"/>
                        </Array>
                    </mxGeometry>
                </mxCell>
                <mxCell id="67" style="edgeStyle=none;html=1;" parent="1" target="5" edge="1">
                    <mxGeometry relative="1" as="geometry">
                        <mxPoint x="680" y="350" as="sourcePoint"/>
                        <Array as="points">
                            <mxPoint x="680" y="470"/>
                        </Array>
                    </mxGeometry>
                </mxCell>
                <mxCell id="68" style="edgeStyle=none;html=1;entryX=1;entryY=0;entryDx=0;entryDy=0;exitX=-0.007;exitY=0.062;exitDx=0;exitDy=0;exitPerimeter=0;" parent="1" source="62" target="44" edge="1">
                    <mxGeometry relative="1" as="geometry">
                        <Array as="points">
                            <mxPoint x="600" y="190"/>
                        </Array>
                    </mxGeometry>
                </mxCell>
                <mxCell id="62" value="Skill_Interview" style="swimlane;fontStyle=0;childLayout=stackLayout;horizontal=1;startSize=26;fillColor=none;horizontalStack=0;resizeParent=1;resizeParentMax=0;resizeLast=0;collapsible=1;marginBottom=0;" parent="1" vertex="1">
                    <mxGeometry x="600" y="240" width="140" height="104" as="geometry">
                        <mxRectangle x="610" y="490" width="90" height="30" as="alternateBounds"/>
                    </mxGeometry>
                </mxCell>
                <mxCell id="63" value="- id: Int" style="text;strokeColor=none;fillColor=none;align=left;verticalAlign=top;spacingLeft=4;spacingRight=4;overflow=hidden;rotatable=0;points=[[0,0.5],[1,0.5]];portConstraint=eastwest;" parent="62" vertex="1">
                    <mxGeometry y="26" width="140" height="26" as="geometry"/>
                </mxCell>
                <mxCell id="64" value="- Description: String" style="text;strokeColor=none;fillColor=none;align=left;verticalAlign=top;spacingLeft=4;spacingRight=4;overflow=hidden;rotatable=0;points=[[0,0.5],[1,0.5]];portConstraint=eastwest;" parent="62" vertex="1">
                    <mxGeometry y="52" width="140" height="26" as="geometry"/>
                </mxCell>
                <mxCell id="65" value="- DateCandidat: Boolean" style="text;strokeColor=none;fillColor=none;align=left;verticalAlign=top;spacingLeft=4;spacingRight=4;overflow=hidden;rotatable=0;points=[[0,0.5],[1,0.5]];portConstraint=eastwest;" parent="62" vertex="1">
                    <mxGeometry y="78" width="140" height="26" as="geometry"/>
                </mxCell>
            </root>
        </mxGraphModel>
    </diagram>
    <diagram id="Zohwi4202Ojp3hjO8zmm" name="Architect">
        <mxGraphModel dx="1130" dy="784" grid="1" gridSize="10" guides="1" tooltips="1" connect="1" arrows="1" fold="1" page="1" pageScale="1" pageWidth="850" pageHeight="1100" math="0" shadow="0">
            <root>
                <mxCell id="0"/>
                <mxCell id="1" parent="0"/>
                <mxCell id="MAEKP3lbZmjxOH5UO4B8-16" style="edgeStyle=none;html=1;startArrow=classic;startFill=1;endArrow=classic;endFill=1;" parent="1" source="MAEKP3lbZmjxOH5UO4B8-1" target="MAEKP3lbZmjxOH5UO4B8-13" edge="1">
                    <mxGeometry relative="1" as="geometry">
                        <Array as="points">
                            <mxPoint x="730" y="570"/>
                        </Array>
                    </mxGeometry>
                </mxCell>
                <mxCell id="MAEKP3lbZmjxOH5UO4B8-1" value="Storage Data Base" style="shape=datastore;whiteSpace=wrap;html=1;" parent="1" vertex="1">
                    <mxGeometry x="680" y="350" width="100" height="170" as="geometry"/>
                </mxCell>
                <mxCell id="MAEKP3lbZmjxOH5UO4B8-17" style="edgeStyle=none;html=1;entryX=0;entryY=0.5;entryDx=0;entryDy=0;startArrow=classic;startFill=1;endArrow=classic;endFill=1;" parent="1" source="MAEKP3lbZmjxOH5UO4B8-11" target="MAEKP3lbZmjxOH5UO4B8-12" edge="1">
                    <mxGeometry relative="1" as="geometry"/>
                </mxCell>
                <mxCell id="MAEKP3lbZmjxOH5UO4B8-11" value="Front End" style="rounded=0;whiteSpace=wrap;html=1;" parent="1" vertex="1">
                    <mxGeometry x="90" y="280" width="140" height="170" as="geometry"/>
                </mxCell>
                <mxCell id="MAEKP3lbZmjxOH5UO4B8-15" style="edgeStyle=none;html=1;startArrow=classic;startFill=1;endArrow=classic;endFill=1;entryX=0.15;entryY=0.05;entryDx=0;entryDy=0;entryPerimeter=0;exitX=1;exitY=0.5;exitDx=0;exitDy=0;" parent="1" source="MAEKP3lbZmjxOH5UO4B8-12" target="MAEKP3lbZmjxOH5UO4B8-1" edge="1">
                    <mxGeometry relative="1" as="geometry"/>
                </mxCell>
                <mxCell id="MAEKP3lbZmjxOH5UO4B8-12" value="Back End API&lt;br&gt;&lt;br&gt;Spring Boot" style="whiteSpace=wrap;html=1;aspect=fixed;" parent="1" vertex="1">
                    <mxGeometry x="430" y="280" width="160" height="160" as="geometry"/>
                </mxCell>
                <mxCell id="MAEKP3lbZmjxOH5UO4B8-14" style="edgeStyle=none;html=1;entryX=0.5;entryY=1;entryDx=0;entryDy=0;endArrow=classic;endFill=1;startArrow=classic;startFill=1;" parent="1" source="MAEKP3lbZmjxOH5UO4B8-13" target="MAEKP3lbZmjxOH5UO4B8-12" edge="1">
                    <mxGeometry relative="1" as="geometry"/>
                </mxCell>
                <mxCell id="MAEKP3lbZmjxOH5UO4B8-13" value="Business Process &lt;br&gt;Orchestrator" style="rounded=1;whiteSpace=wrap;html=1;" parent="1" vertex="1">
                    <mxGeometry x="422.5" y="540" width="175" height="60" as="geometry"/>
                </mxCell>
            </root>
        </mxGraphModel>
    </diagram>
    <diagram id="t1QL8UFL0QdJYzpB9QNN" name="Archiect_component">
        <mxGraphModel dx="2039" dy="825" grid="1" gridSize="10" guides="1" tooltips="1" connect="1" arrows="1" fold="1" page="1" pageScale="1" pageWidth="850" pageHeight="1100" math="0" shadow="0">
            <root>
                <mxCell id="0"/>
                <mxCell id="1" parent="0"/>
                <mxCell id="EWFO7bZ9BZqcGkZnQBQ1-2" value="Storage Data Base" style="shape=datastore;whiteSpace=wrap;html=1;" vertex="1" parent="1">
                    <mxGeometry x="700" y="300" width="130" height="280" as="geometry"/>
                </mxCell>
                <mxCell id="EWFO7bZ9BZqcGkZnQBQ1-4" value="Front End" style="rounded=0;whiteSpace=wrap;html=1;" vertex="1" parent="1">
                    <mxGeometry x="-90" y="20" width="140" height="150" as="geometry"/>
                </mxCell>
                <mxCell id="EWFO7bZ9BZqcGkZnQBQ1-6" value="" style="whiteSpace=wrap;html=1;aspect=fixed;" vertex="1" parent="1">
                    <mxGeometry x="160" width="440" height="440" as="geometry"/>
                </mxCell>
                <mxCell id="EWFO7bZ9BZqcGkZnQBQ1-28" style="edgeStyle=none;html=1;entryX=0;entryY=0.7;entryDx=0;entryDy=0;startArrow=classic;startFill=1;endArrow=classic;endFill=1;exitX=1;exitY=0.325;exitDx=0;exitDy=0;exitPerimeter=0;" edge="1" parent="1" source="EWFO7bZ9BZqcGkZnQBQ1-8" target="EWFO7bZ9BZqcGkZnQBQ1-2">
                    <mxGeometry relative="1" as="geometry">
                        <mxPoint x="620" y="496" as="sourcePoint"/>
                    </mxGeometry>
                </mxCell>
                <mxCell id="EWFO7bZ9BZqcGkZnQBQ1-8" value="Business Process &lt;br&gt;Orchestrator" style="rounded=1;whiteSpace=wrap;html=1;" vertex="1" parent="1">
                    <mxGeometry x="160" y="470" width="450" height="80" as="geometry"/>
                </mxCell>
                <mxCell id="EWFO7bZ9BZqcGkZnQBQ1-13" value="&lt;span style=&quot;color: rgb(240, 240, 240); font-family: Helvetica; font-size: 12px; font-style: normal; font-variant-ligatures: normal; font-variant-caps: normal; font-weight: 400; letter-spacing: normal; orphans: 2; text-align: center; text-indent: 0px; text-transform: none; widows: 2; word-spacing: 0px; -webkit-text-stroke-width: 0px; background-color: rgb(42, 37, 47); text-decoration-thickness: initial; text-decoration-style: initial; text-decoration-color: initial; float: none; display: inline !important;&quot;&gt;Back End API&lt;/span&gt;&lt;br style=&quot;border-color: rgb(0, 0, 0); color: rgb(240, 240, 240); font-family: Helvetica; font-size: 12px; font-style: normal; font-variant-ligatures: normal; font-variant-caps: normal; font-weight: 400; letter-spacing: normal; orphans: 2; text-align: center; text-indent: 0px; text-transform: none; widows: 2; word-spacing: 0px; -webkit-text-stroke-width: 0px; background-color: rgb(42, 37, 47); text-decoration-thickness: initial; text-decoration-style: initial; text-decoration-color: initial;&quot;&gt;&lt;br style=&quot;border-color: rgb(0, 0, 0); color: rgb(240, 240, 240); font-family: Helvetica; font-size: 12px; font-style: normal; font-variant-ligatures: normal; font-variant-caps: normal; font-weight: 400; letter-spacing: normal; orphans: 2; text-align: center; text-indent: 0px; text-transform: none; widows: 2; word-spacing: 0px; -webkit-text-stroke-width: 0px; background-color: rgb(42, 37, 47); text-decoration-thickness: initial; text-decoration-style: initial; text-decoration-color: initial;&quot;&gt;&lt;span style=&quot;color: rgb(240, 240, 240); font-family: Helvetica; font-size: 12px; font-style: normal; font-variant-ligatures: normal; font-variant-caps: normal; font-weight: 400; letter-spacing: normal; orphans: 2; text-align: center; text-indent: 0px; text-transform: none; widows: 2; word-spacing: 0px; -webkit-text-stroke-width: 0px; background-color: rgb(42, 37, 47); text-decoration-thickness: initial; text-decoration-style: initial; text-decoration-color: initial; float: none; display: inline !important;&quot;&gt;Spring Boot&lt;/span&gt;" style="text;whiteSpace=wrap;html=1;" vertex="1" parent="1">
                    <mxGeometry x="610" y="40" width="90" height="50" as="geometry"/>
                </mxCell>
                <mxCell id="EWFO7bZ9BZqcGkZnQBQ1-18" style="edgeStyle=none;html=1;startArrow=classic;startFill=1;entryX=0.304;entryY=0.023;entryDx=0;entryDy=0;entryPerimeter=0;" edge="1" parent="1" source="EWFO7bZ9BZqcGkZnQBQ1-16" target="EWFO7bZ9BZqcGkZnQBQ1-8">
                    <mxGeometry relative="1" as="geometry">
                        <mxPoint x="280" y="460" as="targetPoint"/>
                    </mxGeometry>
                </mxCell>
                <mxCell id="EWFO7bZ9BZqcGkZnQBQ1-16" value="ModuleAccessOrchestrator" style="shape=ext;double=1;rounded=0;whiteSpace=wrap;html=1;" vertex="1" parent="1">
                    <mxGeometry x="205" y="320" width="180" height="60" as="geometry"/>
                </mxCell>
                <mxCell id="EWFO7bZ9BZqcGkZnQBQ1-29" style="edgeStyle=none;html=1;startArrow=classic;startFill=1;endArrow=classic;endFill=1;entryX=-0.009;entryY=0.219;entryDx=0;entryDy=0;entryPerimeter=0;" edge="1" parent="1" target="EWFO7bZ9BZqcGkZnQBQ1-2">
                    <mxGeometry relative="1" as="geometry">
                        <mxPoint x="570" y="360" as="sourcePoint"/>
                        <mxPoint x="690" y="360.53" as="targetPoint"/>
                    </mxGeometry>
                </mxCell>
                <mxCell id="EWFO7bZ9BZqcGkZnQBQ1-17" value="ModuleDataAccess" style="shape=ext;double=1;rounded=0;whiteSpace=wrap;html=1;" vertex="1" parent="1">
                    <mxGeometry x="410" y="320" width="160" height="60" as="geometry"/>
                </mxCell>
                <mxCell id="EWFO7bZ9BZqcGkZnQBQ1-21" value="ModuleNotification" style="shape=ext;double=1;rounded=0;whiteSpace=wrap;html=1;" vertex="1" parent="1">
                    <mxGeometry x="210" y="170" width="170" height="60" as="geometry"/>
                </mxCell>
                <mxCell id="EWFO7bZ9BZqcGkZnQBQ1-22" value="TimerJobModule" style="shape=ext;double=1;rounded=0;whiteSpace=wrap;html=1;" vertex="1" parent="1">
                    <mxGeometry x="410" y="30" width="160" height="60" as="geometry"/>
                </mxCell>
                <mxCell id="EWFO7bZ9BZqcGkZnQBQ1-25" style="edgeStyle=none;html=1;entryX=1;entryY=0.25;entryDx=0;entryDy=0;startArrow=classic;startFill=1;endArrow=classic;endFill=1;" edge="1" parent="1" source="EWFO7bZ9BZqcGkZnQBQ1-23" target="EWFO7bZ9BZqcGkZnQBQ1-4">
                    <mxGeometry relative="1" as="geometry"/>
                </mxCell>
                <mxCell id="EWFO7bZ9BZqcGkZnQBQ1-23" value="ModuleAPI Access" style="shape=ext;double=1;rounded=0;whiteSpace=wrap;html=1;" vertex="1" parent="1">
                    <mxGeometry x="210" y="30" width="160" height="60" as="geometry"/>
                </mxCell>
                <mxCell id="EWFO7bZ9BZqcGkZnQBQ1-26" value="Messaging" style="shape=ext;double=1;rounded=0;whiteSpace=wrap;html=1;" vertex="1" parent="1">
                    <mxGeometry x="410" y="170" width="160" height="60" as="geometry"/>
                </mxCell>
            </root>
        </mxGraphModel>
    </diagram>
    <diagram id="YvemJ3ccg7QUft8NVStq" name="Sequence_Diagram">
        <mxGraphModel dx="1980" dy="784" grid="1" gridSize="10" guides="1" tooltips="1" connect="1" arrows="1" fold="1" page="1" pageScale="1" pageWidth="850" pageHeight="1100" math="0" shadow="0">
            <root>
                <mxCell id="0"/>
                <mxCell id="1" parent="0"/>
                <mxCell id="T4dL-UI3-HICNk03D1N4-17" value="" style="group" vertex="1" connectable="0" parent="1">
                    <mxGeometry x="-97" y="7" width="30" height="813" as="geometry"/>
                </mxCell>
                <mxCell id="T4dL-UI3-HICNk03D1N4-6" style="edgeStyle=none;html=1;startArrow=none;startFill=0;endArrow=none;endFill=0;" edge="1" parent="T4dL-UI3-HICNk03D1N4-17">
                    <mxGeometry relative="1" as="geometry">
                        <mxPoint x="27" y="813" as="targetPoint"/>
                        <mxPoint x="17" y="73" as="sourcePoint"/>
                    </mxGeometry>
                </mxCell>
                <mxCell id="T4dL-UI3-HICNk03D1N4-5" value="Recruiter" style="shape=umlActor;verticalLabelPosition=bottom;verticalAlign=top;html=1;outlineConnect=0;" vertex="1" parent="T4dL-UI3-HICNk03D1N4-17">
                    <mxGeometry width="30" height="50" as="geometry"/>
                </mxCell>
                <mxCell id="T4dL-UI3-HICNk03D1N4-42" value="" style="rounded=0;dashed=0;" vertex="1" parent="T4dL-UI3-HICNk03D1N4-17">
                    <mxGeometry x="10" y="83" width="10" height="47" as="geometry"/>
                </mxCell>
                <mxCell id="T4dL-UI3-HICNk03D1N4-18" value="" style="rounded=0;dashed=0;container=0;collapsible=0;recursiveResize=0;" vertex="1" parent="1">
                    <mxGeometry x="180" y="7" width="830" height="840" as="geometry"/>
                </mxCell>
                <mxCell id="T4dL-UI3-HICNk03D1N4-19" value="Systeme" style="rounded=0;dashed=0;" vertex="1" parent="T4dL-UI3-HICNk03D1N4-18">
                    <mxGeometry x="30" y="10" width="100" height="30" as="geometry"/>
                </mxCell>
                <mxCell id="T4dL-UI3-HICNk03D1N4-20" value="" style="rounded=0;dashed=0;" vertex="1" parent="T4dL-UI3-HICNk03D1N4-18">
                    <mxGeometry x="75" y="60" width="10" height="60" as="geometry"/>
                </mxCell>
                <mxCell id="T4dL-UI3-HICNk03D1N4-21" value="" style="html=1;verticalAlign=bottom;startArrow=none;endArrow=none;dashed=1;" edge="1" parent="T4dL-UI3-HICNk03D1N4-18" source="T4dL-UI3-HICNk03D1N4-20" target="T4dL-UI3-HICNk03D1N4-19">
                    <mxGeometry relative="1" as="geometry"/>
                </mxCell>
                <mxCell id="T4dL-UI3-HICNk03D1N4-22" value="" style="html=1;verticalAlign=bottom;startArrow=none;endArrow=none;dashed=1;exitX=0.5;exitY=1;exitDx=0;exitDy=0;" edge="1" parent="T4dL-UI3-HICNk03D1N4-18" target="T4dL-UI3-HICNk03D1N4-20" source="T4dL-UI3-HICNk03D1N4-52">
                    <mxGeometry relative="1" as="geometry">
                        <mxPoint x="80" y="150" as="sourcePoint"/>
                    </mxGeometry>
                </mxCell>
                <mxCell id="T4dL-UI3-HICNk03D1N4-23" value="" style="html=1;verticalAlign=bottom;startArrow=none;endArrow=open;endFill=0;" edge="1" parent="T4dL-UI3-HICNk03D1N4-18" target="T4dL-UI3-HICNk03D1N4-18">
                    <mxGeometry relative="1" as="geometry">
                        <mxPoint y="60" as="sourcePoint"/>
                        <mxPoint x="75" y="60" as="targetPoint"/>
                    </mxGeometry>
                </mxCell>
                <mxCell id="T4dL-UI3-HICNk03D1N4-49" value="" style="rounded=0;dashed=0;" vertex="1" parent="T4dL-UI3-HICNk03D1N4-18">
                    <mxGeometry x="75" y="150" width="15" height="60" as="geometry"/>
                </mxCell>
                <mxCell id="T4dL-UI3-HICNk03D1N4-50" style="edgeStyle=none;html=1;entryX=0.5;entryY=1;entryDx=0;entryDy=0;startArrow=none;startFill=0;endArrow=classic;endFill=1;exitX=1;exitY=0.25;exitDx=0;exitDy=0;" edge="1" parent="T4dL-UI3-HICNk03D1N4-18" source="T4dL-UI3-HICNk03D1N4-49" target="T4dL-UI3-HICNk03D1N4-49">
                    <mxGeometry relative="1" as="geometry">
                        <Array as="points">
                            <mxPoint x="110" y="160"/>
                            <mxPoint x="110" y="180"/>
                            <mxPoint x="110" y="190"/>
                            <mxPoint x="110" y="210"/>
                        </Array>
                    </mxGeometry>
                </mxCell>
                <mxCell id="T4dL-UI3-HICNk03D1N4-51" value="Check &lt;br&gt;Technical&lt;br&gt;Advisor&lt;br&gt;Eligibility" style="edgeLabel;html=1;align=center;verticalAlign=middle;resizable=0;points=[];" vertex="1" connectable="0" parent="T4dL-UI3-HICNk03D1N4-50">
                    <mxGeometry x="-0.1313" relative="1" as="geometry">
                        <mxPoint x="-60" y="-2" as="offset"/>
                    </mxGeometry>
                </mxCell>
                <mxCell id="T4dL-UI3-HICNk03D1N4-52" value="" style="rounded=0;dashed=0;" vertex="1" parent="T4dL-UI3-HICNk03D1N4-18">
                    <mxGeometry x="75" y="233" width="10" height="60" as="geometry"/>
                </mxCell>
                <mxCell id="T4dL-UI3-HICNk03D1N4-55" value="ref" style="shape=umlFrame;tabPosition=left;html=1;boundedLbl=1;labelInHeader=1;width=50;height=30;" vertex="1" parent="T4dL-UI3-HICNk03D1N4-18">
                    <mxGeometry x="60" y="233" width="770" height="120" as="geometry"/>
                </mxCell>
                <mxCell id="T4dL-UI3-HICNk03D1N4-56" value="Interaction1" style="text;align=center;" vertex="1" parent="T4dL-UI3-HICNk03D1N4-55">
                    <mxGeometry width="100" height="20" relative="1" as="geometry">
                        <mxPoint x="60" y="50" as="offset"/>
                    </mxGeometry>
                </mxCell>
                <mxCell id="T4dL-UI3-HICNk03D1N4-24" value="" style="rounded=0;dashed=0;container=0;collapsible=0;recursiveResize=0;" vertex="1" parent="1">
                    <mxGeometry x="460" width="160" height="840" as="geometry"/>
                </mxCell>
                <mxCell id="T4dL-UI3-HICNk03D1N4-25" value="Timer" style="rounded=0;dashed=0;" vertex="1" parent="T4dL-UI3-HICNk03D1N4-24">
                    <mxGeometry x="30" y="10" width="100" height="30" as="geometry"/>
                </mxCell>
                <mxCell id="T4dL-UI3-HICNk03D1N4-26" value="" style="rounded=0;dashed=0;" vertex="1" parent="T4dL-UI3-HICNk03D1N4-24">
                    <mxGeometry x="75" y="60" width="10" height="60" as="geometry"/>
                </mxCell>
                <mxCell id="T4dL-UI3-HICNk03D1N4-27" value="" style="html=1;verticalAlign=bottom;startArrow=none;endArrow=none;dashed=1;" edge="1" parent="T4dL-UI3-HICNk03D1N4-24" source="T4dL-UI3-HICNk03D1N4-26" target="T4dL-UI3-HICNk03D1N4-25">
                    <mxGeometry relative="1" as="geometry"/>
                </mxCell>
                <mxCell id="T4dL-UI3-HICNk03D1N4-28" value="" style="html=1;verticalAlign=bottom;startArrow=none;endArrow=none;dashed=1;" edge="1" parent="T4dL-UI3-HICNk03D1N4-24" target="T4dL-UI3-HICNk03D1N4-26">
                    <mxGeometry relative="1" as="geometry">
                        <mxPoint x="80" y="150" as="sourcePoint"/>
                    </mxGeometry>
                </mxCell>
                <mxCell id="T4dL-UI3-HICNk03D1N4-29" value="" style="html=1;verticalAlign=bottom;startArrow=none;endArrow=open;endFill=0;" edge="1" parent="T4dL-UI3-HICNk03D1N4-24" target="T4dL-UI3-HICNk03D1N4-24">
                    <mxGeometry relative="1" as="geometry">
                        <mxPoint y="60" as="sourcePoint"/>
                        <mxPoint x="75" y="60" as="targetPoint"/>
                    </mxGeometry>
                </mxCell>
                <mxCell id="T4dL-UI3-HICNk03D1N4-30" value="" style="rounded=0;dashed=0;container=0;collapsible=0;recursiveResize=0;" vertex="1" parent="1">
                    <mxGeometry x="790" width="160" height="840" as="geometry"/>
                </mxCell>
                <mxCell id="T4dL-UI3-HICNk03D1N4-31" value="TechnicalAdvisor" style="rounded=0;dashed=0;" vertex="1" parent="T4dL-UI3-HICNk03D1N4-30">
                    <mxGeometry x="30" y="10" width="100" height="30" as="geometry"/>
                </mxCell>
                <mxCell id="T4dL-UI3-HICNk03D1N4-32" value="" style="rounded=0;dashed=0;" vertex="1" parent="T4dL-UI3-HICNk03D1N4-30">
                    <mxGeometry x="75" y="60" width="10" height="60" as="geometry"/>
                </mxCell>
                <mxCell id="T4dL-UI3-HICNk03D1N4-33" value="" style="html=1;verticalAlign=bottom;startArrow=none;endArrow=none;dashed=1;" edge="1" parent="T4dL-UI3-HICNk03D1N4-30" source="T4dL-UI3-HICNk03D1N4-32" target="T4dL-UI3-HICNk03D1N4-31">
                    <mxGeometry relative="1" as="geometry"/>
                </mxCell>
                <mxCell id="T4dL-UI3-HICNk03D1N4-34" value="" style="html=1;verticalAlign=bottom;startArrow=none;endArrow=none;dashed=1;" edge="1" parent="T4dL-UI3-HICNk03D1N4-30" target="T4dL-UI3-HICNk03D1N4-32">
                    <mxGeometry relative="1" as="geometry">
                        <mxPoint x="80" y="150" as="sourcePoint"/>
                    </mxGeometry>
                </mxCell>
                <mxCell id="T4dL-UI3-HICNk03D1N4-35" value="" style="html=1;verticalAlign=bottom;startArrow=none;endArrow=open;endFill=0;" edge="1" parent="T4dL-UI3-HICNk03D1N4-30" target="T4dL-UI3-HICNk03D1N4-30">
                    <mxGeometry relative="1" as="geometry">
                        <mxPoint y="60" as="sourcePoint"/>
                        <mxPoint x="75" y="60" as="targetPoint"/>
                    </mxGeometry>
                </mxCell>
                <mxCell id="T4dL-UI3-HICNk03D1N4-36" value="" style="rounded=0;dashed=0;container=0;collapsible=0;recursiveResize=0;" vertex="1" parent="1">
                    <mxGeometry x="1120" width="160" height="840" as="geometry"/>
                </mxCell>
                <mxCell id="T4dL-UI3-HICNk03D1N4-37" value="Applicant" style="rounded=0;dashed=0;" vertex="1" parent="T4dL-UI3-HICNk03D1N4-36">
                    <mxGeometry x="30" y="10" width="100" height="30" as="geometry"/>
                </mxCell>
                <mxCell id="T4dL-UI3-HICNk03D1N4-38" value="" style="rounded=0;dashed=0;" vertex="1" parent="T4dL-UI3-HICNk03D1N4-36">
                    <mxGeometry x="75" y="60" width="10" height="60" as="geometry"/>
                </mxCell>
                <mxCell id="T4dL-UI3-HICNk03D1N4-39" value="" style="html=1;verticalAlign=bottom;startArrow=none;endArrow=none;dashed=1;" edge="1" parent="T4dL-UI3-HICNk03D1N4-36" source="T4dL-UI3-HICNk03D1N4-38" target="T4dL-UI3-HICNk03D1N4-37">
                    <mxGeometry relative="1" as="geometry"/>
                </mxCell>
                <mxCell id="T4dL-UI3-HICNk03D1N4-40" value="" style="html=1;verticalAlign=bottom;startArrow=none;endArrow=none;dashed=1;" edge="1" parent="T4dL-UI3-HICNk03D1N4-36" target="T4dL-UI3-HICNk03D1N4-38">
                    <mxGeometry relative="1" as="geometry">
                        <mxPoint x="80" y="150" as="sourcePoint"/>
                    </mxGeometry>
                </mxCell>
                <mxCell id="T4dL-UI3-HICNk03D1N4-41" value="" style="html=1;verticalAlign=bottom;startArrow=none;endArrow=open;endFill=0;" edge="1" parent="T4dL-UI3-HICNk03D1N4-36" target="T4dL-UI3-HICNk03D1N4-36">
                    <mxGeometry relative="1" as="geometry">
                        <mxPoint y="60" as="sourcePoint"/>
                        <mxPoint x="75" y="60" as="targetPoint"/>
                    </mxGeometry>
                </mxCell>
                <mxCell id="T4dL-UI3-HICNk03D1N4-43" style="edgeStyle=none;html=1;startArrow=none;startFill=0;endArrow=classic;endFill=1;exitX=1;exitY=0.25;exitDx=0;exitDy=0;" edge="1" parent="1" source="T4dL-UI3-HICNk03D1N4-42">
                    <mxGeometry relative="1" as="geometry">
                        <mxPoint x="-70" y="100" as="sourcePoint"/>
                        <mxPoint x="260" y="100" as="targetPoint"/>
                    </mxGeometry>
                </mxCell>
                <mxCell id="T4dL-UI3-HICNk03D1N4-44" value="Demande d'entrevue" style="edgeLabel;html=1;align=center;verticalAlign=middle;resizable=0;points=[];" vertex="1" connectable="0" parent="T4dL-UI3-HICNk03D1N4-43">
                    <mxGeometry x="-0.2573" y="-2" relative="1" as="geometry">
                        <mxPoint x="10" y="-12" as="offset"/>
                    </mxGeometry>
                </mxCell>
                <mxCell id="T4dL-UI3-HICNk03D1N4-45" style="edgeStyle=none;html=1;entryX=1;entryY=0.75;entryDx=0;entryDy=0;startArrow=none;startFill=0;endArrow=classic;endFill=1;exitX=0;exitY=1;exitDx=0;exitDy=0;" edge="1" parent="1" source="T4dL-UI3-HICNk03D1N4-20" target="T4dL-UI3-HICNk03D1N4-42">
                    <mxGeometry relative="1" as="geometry">
                        <mxPoint x="250" y="140" as="sourcePoint"/>
                    </mxGeometry>
                </mxCell>
                <mxCell id="T4dL-UI3-HICNk03D1N4-46" value="Reponse Initiation demande" style="edgeLabel;html=1;align=center;verticalAlign=middle;resizable=0;points=[];" vertex="1" connectable="0" parent="T4dL-UI3-HICNk03D1N4-45">
                    <mxGeometry x="-0.0729" y="-1" relative="1" as="geometry">
                        <mxPoint y="9" as="offset"/>
                    </mxGeometry>
                </mxCell>
                <mxCell id="T4dL-UI3-HICNk03D1N4-53" style="edgeStyle=none;html=1;entryX=-0.019;entryY=0.321;entryDx=0;entryDy=0;entryPerimeter=0;startArrow=none;startFill=0;endArrow=classic;endFill=1;" edge="1" parent="1" source="T4dL-UI3-HICNk03D1N4-52" target="T4dL-UI3-HICNk03D1N4-30">
                    <mxGeometry relative="1" as="geometry"/>
                </mxCell>
                <mxCell id="T4dL-UI3-HICNk03D1N4-54" value="Ask disponibility" style="edgeLabel;html=1;align=center;verticalAlign=middle;resizable=0;points=[];" vertex="1" connectable="0" parent="T4dL-UI3-HICNk03D1N4-53">
                    <mxGeometry x="-0.4751" y="1" relative="1" as="geometry">
                        <mxPoint y="-9" as="offset"/>
                    </mxGeometry>
                </mxCell>
            </root>
        </mxGraphModel>
    </diagram>
</mxfile>